<?xml version="1.0" encoding="utf-8"?>
<!-- Generator: Adobe Illustrator 16.0.0, SVG Export Plug-In . SVG Version: 6.00 Build 0)  -->
<!DOCTYPE svg PUBLIC "-//W3C//DTD SVG 1.1//EN" "http://www.w3.org/Graphics/SVG/1.1/DTD/svg11.dtd">
<svg version="1.1" id="Layer_1" xmlns="http://www.w3.org/2000/svg" xmlns:xlink="http://www.w3.org/1999/xlink" x="0px" y="0px"
	 width="200px" height="200px" viewBox="0 0 200 200" enable-background="new 0 0 200 200" xml:space="preserve">
<g xmlns:svg="http://www.w3.org/2000/svg" xmlns:inkscape="http://www.inkscape.org/namespaces/inkscape" xmlns:rdf="http://www.w3.org/1999/02/22-rdf-syntax-ns#" xmlns:sodipodi="http://sodipodi.sourceforge.net/DTD/sodipodi-0.dtd" xmlns:dc="http://purl.org/dc/elements/1.1/" xmlns:cc="http://creativecommons.org/ns#" inkscape:version="0.48.1 r9760" sodipodi:docname="twitter_bootstrap_logo.svg">
	<path fill="#7800A2" d="M200,166.666C200,185,185,200,166.666,200H33.333C15,200,0,185,0,166.666V33.333C0,15,15,0,33.333,0
		h133.333C185,0,200,15,200,33.333V166.666z"/>
</g>
<g>
	<path fill="#FFFFFF" d="M67.709,70.046c-7.7,0-13.755,2.729-18.166,8.186c-4.411,5.458-6.616,12.989-6.616,22.595
		c0,10.056,2.121,17.661,6.363,22.819c4.242,5.158,10.381,7.737,18.418,7.737c3.476,0,6.84-0.345,10.092-1.037
		c3.252-0.691,6.634-1.579,10.148-2.663v11.493c-6.429,2.431-13.718,3.645-21.866,3.645c-11.998,0-21.212-3.635-27.641-10.904
		c-6.429-7.27-9.644-17.67-9.644-31.202c0-8.521,1.56-15.979,4.682-22.37c3.12-6.392,7.634-11.288,13.54-14.689
		c5.905-3.401,12.839-5.102,20.801-5.102c8.373,0,16.109,1.757,23.212,5.27l-4.822,11.157c-2.767-1.308-5.691-2.457-8.775-3.448
		C74.354,70.542,71.11,70.046,67.709,70.046z"/>
	<path fill="#FFFFFF" d="M156.463,141.699l-8.186-22.763h-31.341l-8.018,22.763H94.79l30.668-82.306h14.578l30.668,82.306H156.463z
		 M144.745,107.387l-7.681-22.315c-0.561-1.494-1.337-3.849-2.327-7.064c-0.99-3.214-1.673-5.568-2.046-7.064
		c-1.01,4.598-2.486,9.626-4.43,15.082l-7.4,21.362H144.745z"/>
</g>
</svg>
